<svg width="106" height="24" viewBox="0 0 106 24" fill="none" xmlns="http://www.w3.org/2000/svg">
<g clip-path="url(#clip0)">
<path fill-rule="evenodd" clip-rule="evenodd" d="M104.413 10.3171C104.056 9.52626 103.342 9.03311 102.485 9.03311C101.557 9.03311 100.604 9.82304 100.604 10.812C100.604 13.5532 105.961 12.2186 105.961 16.3442C105.961 18.4447 104.39 19.8984 102.414 19.8984C100.581 19.8984 99.0805 18.7397 98.6286 16.8871L99.6765 16.5406C100.08 17.9009 100.961 18.8615 102.414 18.8615C103.796 18.8615 104.89 17.7268 104.89 16.2953C104.89 14.8878 103.842 14.4418 102.746 14.0473C101.246 13.4786 99.5331 12.8122 99.5331 10.8858C99.5331 9.15662 100.936 7.99616 102.533 7.99616C103.651 7.99616 104.865 8.7621 105.342 9.82304L104.413 10.3171ZM41.0255 10.7383C40.7631 10.1198 40.1922 9.55114 39.5015 9.55114C38.8342 9.55114 38.12 10.0958 38.12 10.8342C38.12 11.8987 39.4077 12.2941 40.717 12.8601C42.0255 13.4288 43.3114 14.2454 43.3114 16.1949C43.3114 18.3941 41.5963 19.974 39.5258 19.974C37.6448 19.974 36.1686 18.8615 35.5725 17.0364L37.2642 16.2953C37.7395 17.382 38.2868 18.1444 39.5493 18.1444C40.5719 18.1444 41.3574 17.4291 41.3574 16.3691C41.3574 13.7727 36.3111 14.663 36.3111 11.0102C36.3111 9.05532 37.8359 7.72426 39.644 7.72426C40.9299 7.72426 42.1202 8.66169 42.6198 9.87191L41.0255 10.7383ZM48.2022 3.60933V9.40275L48.2491 9.45251C49.0354 8.34181 50.0581 7.72426 51.4387 7.72426C54.5344 7.72426 55.2494 10.0461 55.2494 12.7633V19.6523H53.3441V13.1072C53.3441 11.2323 53.1998 9.55114 50.9869 9.55114C48.3681 9.55114 48.2022 12.0702 48.2022 14.1459V19.6523H46.2977V3.60933H48.2022ZM60.1619 13.7256C60.1619 15.9976 61.4478 18.1444 63.8285 18.1444C66.2804 18.1444 67.5654 16.0972 67.5654 13.7505C67.5654 11.4287 66.1605 9.55025 63.805 9.55025C61.5903 9.55025 60.1619 11.5522 60.1619 13.7256ZM69.3761 19.6523H67.4707V18.0484H67.4229C66.4472 19.3315 65.1361 19.974 63.5661 19.974C60.2818 19.974 58.2105 17.0852 58.2105 13.874C58.2105 10.5632 60.2323 7.72515 63.5896 7.72515C65.1135 7.72515 66.4933 8.46532 67.4229 9.69775H67.4699V8.04503H69.3753V19.6532L69.3761 19.6523ZM75.0045 9.30501H75.0523C75.7187 8.39157 76.2913 7.72426 77.5286 7.72426C78.1715 7.72426 78.6954 7.94462 79.2428 8.26894L78.3392 10.0701C77.9569 9.79905 77.6963 9.55114 77.1949 9.55114C75.101 9.55114 75.0045 12.3421 75.0045 13.8491V19.6532H73.1018V8.04414H75.0045V9.30501ZM81.8945 19.6523V8.24318H82.9667V19.6523H81.8945ZM83.4194 4.43836C83.4218 4.57091 83.3983 4.70262 83.3503 4.82576C83.3023 4.9489 83.2307 5.06098 83.1397 5.15543C83.0487 5.24988 82.9402 5.32478 82.8205 5.37574C82.7009 5.42671 82.5724 5.4527 82.4428 5.45221C81.8954 5.45221 81.4671 5.00793 81.4671 4.43836C81.4671 3.89634 81.8945 3.4254 82.4428 3.4254C82.9902 3.4254 83.4194 3.89634 83.4194 4.43836ZM95.8344 13.0085C95.572 10.9089 93.9047 9.03222 91.6413 9.03222C89.4058 9.03222 87.549 10.8591 87.3579 13.0085H95.8344ZM87.3579 14.0464C87.2866 16.936 89.2155 18.8606 91.7621 18.8606C93.4763 18.8606 94.857 17.8005 95.6433 16.2687L96.5477 16.8107C95.5486 18.7886 93.7848 19.8984 91.6187 19.8984C88.3579 19.8984 86.2866 17.1572 86.2866 13.922C86.2866 10.7374 88.4049 7.99527 91.6187 7.99527C94.9543 7.99527 96.9292 10.7596 96.9057 14.0464H87.3579ZM25.0681 16.1149L16.3127 0.382081C16.2485 0.266584 16.1557 0.170443 16.0435 0.103359C15.9314 0.036276 15.804 0.000623775 15.6741 0C15.5443 0.000534235 15.4169 0.0360524 15.3048 0.102975C15.1927 0.169898 15.0998 0.26586 15.0355 0.381192L6.82916 15.1304H8.52951L15.6741 2.2916L23.1549 15.7329H19.3467L20.1965 17.2612H24.4304C24.5602 17.2609 24.6877 17.2254 24.7998 17.1583C24.9118 17.0912 25.0044 16.9948 25.0681 16.8791C25.133 16.7627 25.1672 16.631 25.1672 16.497C25.1672 16.363 25.133 16.2313 25.0681 16.1149Z" fill="white"/>
<path fill-rule="evenodd" clip-rule="evenodd" d="M21.9785 21.6684L13.7696 6.91833L12.919 8.44666L20.0636 21.2864H5.10192L7.00818 17.8645H5.3061L3.18871 21.6684C3.1238 21.7848 3.08966 21.9165 3.08966 22.0505C3.08966 22.1845 3.1238 22.3162 3.18871 22.4326C3.3199 22.6698 3.56492 22.8147 3.82644 22.8147H21.3408C21.604 22.8147 21.8447 22.6698 21.9785 22.4326C22.0429 22.316 22.0768 22.1844 22.0768 22.0505C22.0768 21.9166 22.0429 21.785 21.9785 21.6684Z" fill="white"/>
<path fill-rule="evenodd" clip-rule="evenodd" d="M16.3031 15.7331H2.01223L9.49392 2.29181L11.3984 5.71454L12.2482 4.18622L10.1308 0.380512C10.0665 0.265464 9.9736 0.169842 9.86153 0.103335C9.74946 0.0368287 9.62219 0.00180054 9.49261 0.00180054C9.36304 0.00180054 9.23577 0.0368287 9.1237 0.103335C9.01163 0.169842 8.91874 0.265464 8.85444 0.380512L0.0990131 16.1151C0.0338538 16.2315 -0.000427246 16.3632 -0.000427246 16.4972C-0.000427246 16.6313 0.0338538 16.763 0.0990131 16.8793C0.229341 17.1157 0.47262 17.2614 0.735882 17.2614H17.1546L16.3031 15.7331Z" fill="white"/>
</g>
<defs>
<clipPath id="clip0">
<rect width="106" height="23.1026" fill="white"/>
</clipPath>
</defs>
</svg>
